<svg xmlns="http://www.w3.org/2000/svg" width="64" height="64" fill="none"><path fill="#423E3B" d="M0 0h64v64H0z"/><g clip-path="url(#a)"><path fill="#fff" d="M6.41 42.219c.149-1.237.347-2.4.594-3.489.247-1.138.52-2.25.816-3.34.297-1.088.619-2.201.965-3.34.396-1.187.817-2.523 1.262-4.007v-.371c-1.98 1.138-3.39 1.707-4.23 1.707-.792 0-1.188-.297-1.188-.89-.05-.595.198-1.386.742-2.376a16.023 16.023 0 0 1 2.078-2.746c.841-.841 1.683-1.509 2.524-2.004.89-.494 1.583-.569 2.078-.222.594 0 1.064.099 1.41.297.396.197.816.494 1.262.89 1.138-.89 2.202-1.608 3.191-2.152.99-.544 2.177-.817 3.563-.817 2.177 0 3.81.495 4.898 1.485 1.138.99 1.954 2.573 2.45 4.75l2.3-2.301a11.092 11.092 0 0 1 2.227-1.855 9.205 9.205 0 0 1 2.672-1.188c.94-.297 2.003-.445 3.19-.445.99 0 1.955.37 2.895 1.113.94.742 1.608 1.559 2.004 2.45v2.745c0 1.683-.197 3.315-.593 4.899a18.934 18.934 0 0 0-.594 4.75c0 .692.074 1.41.222 2.152.198.693.743 1.04 1.633 1.04 1.188 0 2.252-.248 3.192-.743.99-.495 1.88-1.089 2.672-1.781a16.693 16.693 0 0 0 2.226-2.375c.693-.841 1.311-1.608 1.856-2.301a22.715 22.715 0 0 1 1.633-1.856c.494-.494.99-.742 1.484-.742.346 0 .717.149 1.113.446.445.247.668.569.668.964a.57.57 0 0 1-.074.223v.223a17.147 17.147 0 0 1-2.153 4.379 19.52 19.52 0 0 1-3.265 3.71 16.097 16.097 0 0 1-4.156 2.524c-1.485.594-3.068.89-4.75.89-1.584 0-2.92-.197-4.008-.593-1.089-.445-1.93-1.435-2.524-2.969 0-.148-.024-.47-.074-.965v-.965c0-1.88.173-3.686.52-5.418a23.57 23.57 0 0 0 .593-5.27c0-.148-.024-.47-.074-.964v-.965c-.198-.247-.52-.37-.965-.37h-1.113c-1.039 0-2.029.37-2.969 1.112-.94.743-1.806 1.683-2.597 2.82a23.764 23.764 0 0 0-2.153 3.86 43.335 43.335 0 0 0-1.558 4.23 54.373 54.373 0 0 0-1.113 3.934c-.248 1.188-.396 2.177-.446 2.969l-.816.742h-2.524c-.445 0-.692-.223-.742-.668v-1.113c0-1.188.074-2.375.223-3.563.198-1.237.396-2.449.594-3.636.247-1.237.47-2.474.667-3.711.198-1.237.322-2.45.372-3.637-.05-.396-.1-.816-.149-1.262a5.3 5.3 0 0 0-.297-1.336 2.26 2.26 0 0 0-.668-.965c-.296-.296-.717-.445-1.261-.445a6.14 6.14 0 0 0-2.301.445A8.687 8.687 0 0 0 17.766 25a7.707 7.707 0 0 0-1.633 1.707 6.527 6.527 0 0 0-.965 2.152l-4.453 14.399-.668.742h-.445c-.297.05-.52.074-.668.074-.545 0-1.114-.05-1.707-.148-.545-.149-.817-.619-.817-1.41v-.297Z"/></g><defs><clipPath id="a"><path fill="#fff" d="M4 19h56v26H4z"/></clipPath></defs></svg>