<svg width="835" height="186" viewBox="0 0 835 186" fill="none" xmlns="http://www.w3.org/2000/svg">
<path d="M3.375 94C3.625 91.9167 3.95833 89.9583 4.375 88.125C4.79167 86.2083 5.25 84.3333 5.75 82.5C6.25 80.6667 6.79167 78.7917 7.375 76.875C8.04167 74.875 8.75 72.625 9.5 70.125V69.5C6.16667 71.4167 3.79167 72.375 2.375 72.375C1.04167 72.375 0.375 71.875 0.375 70.875C0.291667 69.875 0.708333 68.5417 1.625 66.875C2.625 65.2083 3.79167 63.6667 5.125 62.25C6.54167 60.8333 7.95833 59.7083 9.375 58.875C10.875 58.0417 12.0417 57.9167 12.875 58.5C13.875 58.5 14.6667 58.6667 15.25 59C15.9167 59.3333 16.625 59.8333 17.375 60.5C19.2917 59 21.0833 57.7917 22.75 56.875C24.4167 55.9583 26.4167 55.5 28.75 55.5C32.4167 55.5 35.1667 56.3333 37 58C38.9167 59.6667 40.2917 62.3333 41.125 66C42.5417 64.5833 43.8333 63.2917 45 62.125C46.1667 60.875 47.4167 59.8333 48.75 59C50.1667 58.0833 51.6667 57.4167 53.25 57C54.8333 56.5 56.625 56.25 58.625 56.25C60.2917 56.25 61.9167 56.875 63.5 58.125C65.0833 59.375 66.2083 60.75 66.875 62.25C66.875 62.5833 66.875 63.3333 66.875 64.5C66.875 65.6667 66.875 66.4583 66.875 66.875C66.875 69.7083 66.5417 72.4583 65.875 75.125C65.2083 77.7083 64.875 80.375 64.875 83.125C64.875 84.2917 65 85.5 65.25 86.75C65.5833 87.9167 66.5 88.5 68 88.5C70 88.5 71.7917 88.0833 73.375 87.25C75.0417 86.4167 76.5417 85.4167 77.875 84.25C79.2917 83 80.5417 81.6667 81.625 80.25C82.7917 78.8333 83.8333 77.5417 84.75 76.375C85.75 75.125 86.6667 74.0833 87.5 73.25C88.3333 72.4167 89.1667 72 90 72C90.5833 72 91.2083 72.25 91.875 72.75C92.625 73.1667 93 73.7083 93 74.375C93 74.4583 92.9583 74.5833 92.875 74.75C92.875 74.9167 92.875 75.0417 92.875 75.125C92.0417 77.7083 90.8333 80.1667 89.25 82.5C87.6667 84.8333 85.8333 86.9167 83.75 88.75C81.6667 90.5 79.3333 91.9167 76.75 93C74.25 94 71.5833 94.5 68.75 94.5C66.0833 94.5 63.8333 94.1667 62 93.5C60.1667 92.75 58.75 91.0833 57.75 88.5C57.75 88.25 57.7083 87.7083 57.625 86.875C57.625 85.9583 57.625 85.4167 57.625 85.25C57.625 82.0833 57.9167 79.0417 58.5 76.125C59.1667 73.2083 59.5 70.25 59.5 67.25C59.5 67 59.4583 66.4583 59.375 65.625C59.375 64.7917 59.375 64.25 59.375 64C59.0417 63.5833 58.5 63.375 57.75 63.375C57.0833 63.375 56.4583 63.375 55.875 63.375C54.125 63.375 52.4583 64 50.875 65.25C49.2917 66.5 47.8333 68.0833 46.5 70C45.1667 71.9167 43.9583 74.0833 42.875 76.5C41.875 78.8333 41 81.2083 40.25 83.625C39.5 85.9583 38.875 88.1667 38.375 90.25C37.9583 92.25 37.7083 93.9167 37.625 95.25L36.25 96.5H32C31.25 96.5 30.8333 96.125 30.75 95.375C30.75 94.5417 30.75 93.9167 30.75 93.5C30.75 91.5 30.875 89.5 31.125 87.5C31.4583 85.4167 31.7917 83.375 32.125 81.375C32.5417 79.2917 32.9167 77.2083 33.25 75.125C33.5833 73.0417 33.7917 71 33.875 69C33.7917 68.3333 33.7083 67.625 33.625 66.875C33.5417 66.0417 33.375 65.2917 33.125 64.625C32.875 63.9583 32.5 63.4167 32 63C31.5 62.5 30.7917 62.25 29.875 62.25C28.5417 62.25 27.25 62.5 26 63C24.75 63.5 23.5833 64.1667 22.5 65C21.5 65.75 20.5833 66.7083 19.75 67.875C19 68.9583 18.4583 70.1667 18.125 71.5L10.625 95.75L9.5 97C9.5 97 9.25 97 8.75 97C8.25 97.0833 7.875 97.125 7.625 97.125C6.70833 97.125 5.75 97.0417 4.75 96.875C3.83333 96.625 3.375 95.8333 3.375 94.5V94ZM89.625 93.25C89.625 93 89.625 92.375 89.625 91.375C89.625 90.375 89.625 89.7083 89.625 89.375C88.2083 84.375 88 79.4583 89 74.625C90.0833 69.7917 91.9583 65.4583 94.625 61.625C97.375 57.7083 100.833 54.4583 105 51.875C109.25 49.2083 113.875 47.5833 118.875 47H121.125C122.958 47 124.458 47.4167 125.625 48.25C126.875 49 127.833 50 128.5 51.25C129.25 52.5 129.75 53.9167 130 55.5C130.333 57.0833 130.5 58.6667 130.5 60.25C130.5 62.4167 130.25 64.5417 129.75 66.625C129.333 68.625 128.833 70.6667 128.25 72.75C127.75 74.8333 127.25 76.9167 126.75 79C126.333 81 126.125 83.125 126.125 85.375V86.125C126.208 86.2917 126.292 86.7917 126.375 87.625C126.542 88.375 126.667 88.8333 126.75 89C126.917 89 127.333 89.0417 128 89.125C128.667 89.125 129.083 89.125 129.25 89.125C130.083 89.125 130.875 89.125 131.625 89.125C132.458 89.0417 133.292 88.8333 134.125 88.5L157.875 77.5C157.958 77.5 158.083 77.5 158.25 77.5C158.5 77.4167 158.667 77.375 158.75 77.375C159.583 77.375 160.25 77.625 160.75 78.125C161.333 78.625 161.625 79.2917 161.625 80.125C161.625 80.5417 161.583 80.9583 161.5 81.375C161.5 81.7083 161.292 82.0417 160.875 82.375C160.292 82.7917 159.208 83.375 157.625 84.125C156.125 84.875 154.5 85.7083 152.75 86.625C151 87.5417 149.333 88.4167 147.75 89.25C146.25 90.0833 145.167 90.625 144.5 90.875C143.333 91.5417 142.042 92.1667 140.625 92.75C139.208 93.25 137.75 93.75 136.25 94.25C134.75 94.75 133.25 95.1667 131.75 95.5C130.333 95.75 129.042 95.875 127.875 95.875C126.042 95.875 124.542 95.5833 123.375 95C122.208 94.3333 121.333 93.5 120.75 92.5C120.167 91.4167 119.75 90.1667 119.5 88.75C119.333 87.25 119.333 85.7083 119.5 84.125C117.833 85.4583 116.042 86.875 114.125 88.375C112.208 89.875 110.208 91.25 108.125 92.5C106.042 93.75 103.917 94.8333 101.75 95.75C99.5833 96.6667 97.375 97.125 95.125 97.125C93.875 97.125 92.75 96.8333 91.75 96.25C90.75 95.5833 90.0417 94.5833 89.625 93.25ZM96.375 90.625C98.2917 90.625 100.417 90.0833 102.75 89C105.083 87.8333 107.375 86.4167 109.625 84.75C111.875 83.0833 113.917 81.3333 115.75 79.5C117.583 77.5833 119 75.875 120 74.375C120.083 71.875 120.417 69.5 121 67.25C121.667 64.9167 122 62.5417 122 60.125C122 59.9583 121.958 59.7083 121.875 59.375C121.875 59.0417 121.875 58.7917 121.875 58.625C120.792 57.7083 119.875 57.1667 119.125 57C118.375 56.8333 117.375 56.75 116.125 56.75C115.958 56.75 115.583 56.75 115 56.75C114.5 56.75 114.167 56.7917 114 56.875C113.5 57.2917 112.667 58.0833 111.5 59.25C110.333 60.3333 109.083 61.5417 107.75 62.875C106.5 64.2083 105.292 65.4583 104.125 66.625C103.042 67.7917 102.292 68.5833 101.875 69C101.792 69 101.625 69.1667 101.375 69.5C101.125 69.75 100.833 70.0833 100.5 70.5C100.25 70.9167 100 71.3333 99.75 71.75C99.5833 72.0833 99.4583 72.375 99.375 72.625L96.375 87.25V90.625ZM152.25 82.125C154.583 80.375 156.292 78.6667 157.375 77C158.542 75.3333 159.458 73.6667 160.125 72C160.792 70.3333 161.333 68.5833 161.75 66.75C162.167 64.8333 162.833 62.75 163.75 60.5C163.417 59.9167 163.208 59.4167 163.125 59C163.125 58.5 163.125 57.9167 163.125 57.25C163.125 56.5833 163.208 55.7917 163.375 54.875C163.625 53.9583 163.958 53.125 164.375 52.375C164.792 51.5417 165.292 50.8333 165.875 50.25C166.458 49.6667 167.167 49.375 168 49.375C167.917 49.7083 168.375 50.0833 169.375 50.5C170.458 50.9167 171.75 51.375 173.25 51.875C174.833 52.375 176.5 52.9167 178.25 53.5C180 54.0833 181.542 54.7083 182.875 55.375C184.375 56.2083 185.417 57.125 186 58.125C186.667 59.0417 187 60.375 187 62.125C187 63.7083 186.792 65.5 186.375 67.5C186.042 69.5 185.667 71.5417 185.25 73.625C184.917 75.625 184.542 77.6667 184.125 79.75C183.792 81.75 183.625 83.5833 183.625 85.25V88.5C183.542 89.25 183.708 89.6667 184.125 89.75C184.625 89.75 185.083 89.75 185.5 89.75C186.5 89.75 187.417 89.5833 188.25 89.25C189.083 88.9167 189.917 88.5417 190.75 88.125C191.667 87.7083 192.542 87.3333 193.375 87C194.208 86.5833 195.083 86.2917 196 86.125L207 79.375C207.333 78.7917 207.75 78.3333 208.25 78C208.833 77.5833 209.375 77.2083 209.875 76.875C210.708 76.375 211.708 75.6667 212.875 74.75C213.458 74.25 214.083 73.75 214.75 73.25H218.5C218.75 73.25 218.917 73.5 219 74C219.083 74.5 219.125 74.875 219.125 75.125C219.125 76.125 218.417 77.375 217 78.875C215.583 80.375 213.75 81.9167 211.5 83.5C209.25 85.0833 206.75 86.6667 204 88.25C201.25 89.75 198.542 91.125 195.875 92.375C193.292 93.625 190.875 94.625 188.625 95.375C186.458 96.125 184.792 96.5 183.625 96.5C182.125 96.5 180.917 96.125 180 95.375C179.083 94.625 178.333 93.7083 177.75 92.625C177.167 91.5417 176.75 90.375 176.5 89.125C176.333 87.7917 176.25 86.5 176.25 85.25C176.25 84.3333 176.542 83.0417 177.125 81.375C177.708 79.7083 178.375 78 179.125 76.25C179.875 74.5 180.542 72.7917 181.125 71.125C181.708 69.4583 182 68.125 182 67.125C182 67.0417 181.375 66.7083 180.125 66.125C178.958 65.5417 177.667 64.9167 176.25 64.25C174.833 63.5 173.5 62.875 172.25 62.375C171.083 61.7917 170.5 61.4583 170.5 61.375C168.667 63.2917 167.375 65.3333 166.625 67.5C165.958 69.6667 165.25 71.9167 164.5 74.25C163.833 76.5833 162.792 78.9167 161.375 81.25C160.042 83.5833 157.75 85.875 154.5 88.125C154.417 88.125 154.25 88.0833 154 88C153.667 87.9167 153.375 87.7083 153.125 87.375C152.792 86.9583 152.542 86.375 152.375 85.625C152.208 84.7917 152.167 83.625 152.25 82.125ZM215.625 63.5C215.792 63.1667 216.125 62.6667 216.625 62C217.125 61.25 217.375 60.625 217.375 60.125V59.75C217.375 59.6667 217.292 59.5833 217.125 59.5C216.958 59.3333 216.833 59.25 216.75 59.25H214.5C212.333 59.9167 209.917 60.375 207.25 60.625C204.5 60.875 201.875 60.9583 199.375 60.875C196.792 60.7917 194.583 60.5833 192.75 60.25C190.917 59.8333 189.833 59.375 189.5 58.875C189.167 58.375 189.792 57.7917 191.375 57.125C192.958 56.375 195.958 55.625 200.375 54.875C200.625 54.875 201.208 54.7917 202.125 54.625C202.958 54.375 203.917 54.1667 205 54C206 53.8333 206.958 53.6667 207.875 53.5C208.792 53.25 209.375 53.125 209.625 53.125C209.958 53.0417 210.667 53 211.75 53C212.833 52.9167 213.917 52.8333 215 52.75C216.167 52.6667 217.25 52.625 218.25 52.625C219.333 52.625 220.083 52.625 220.5 52.625L221.125 51.875L230.875 35.5C231.208 34.9167 231.792 34.4583 232.625 34.125C233.542 33.7917 234.25 33.625 234.75 33.625C235.833 33.625 236.583 34.0833 237 35C237.417 35.8333 237.625 36.6667 237.625 37.5C237.625 37.5833 237.583 37.6667 237.5 37.75C237.5 37.8333 237.5 37.9167 237.5 38V38.5L232 51.875V52.625C232.167 52.125 232.458 51.875 232.875 51.875C233.375 51.875 233.75 51.875 234 51.875C235.25 51.875 236.458 52.2917 237.625 53.125C238.792 53.9583 239.375 55.0833 239.375 56.5C239.375 57.1667 239.167 57.7083 238.75 58.125C238.333 58.5417 237.833 58.875 237.25 59.125C236.667 59.375 236.042 59.5833 235.375 59.75C234.708 59.8333 234.125 59.875 233.625 59.875C232.625 59.875 231.667 59.75 230.75 59.5C229.917 59.25 229 59.125 228 59.125C227.083 59.125 226.25 59.625 225.5 60.625C224.75 61.5417 224.042 62.7917 223.375 64.375C222.792 65.875 222.292 67.5833 221.875 69.5C221.458 71.4167 221.083 73.2917 220.75 75.125C220.417 76.9583 220.167 78.6667 220 80.25C219.917 81.8333 219.875 83.0417 219.875 83.875C219.875 84.2083 219.875 84.875 219.875 85.875C219.958 86.875 220 87.5417 220 87.875C220.083 88.375 220.292 88.8333 220.625 89.25C220.958 89.5833 221.292 89.9583 221.625 90.375H224.5C227.833 90.375 231.125 89.625 234.375 88.125C237.708 86.625 240.833 84.9167 243.75 83C243.917 82.9167 244.292 82.5417 244.875 81.875C245.542 81.125 246.25 80.4167 247 79.75C247.75 79 248.417 78.3333 249 77.75C249.667 77.1667 250.125 76.875 250.375 76.875C250.958 76.875 251.5 77.1667 252 77.75C252.5 78.3333 252.75 78.9583 252.75 79.625C252.75 81.2083 252.167 82.75 251 84.25C249.917 85.75 248.5 87.1667 246.75 88.5C245 89.75 243 90.9167 240.75 92C238.5 93.0833 236.25 94 234 94.75C231.833 95.5 229.75 96.0833 227.75 96.5C225.833 96.9167 224.25 97.125 223 97.125C221.833 97.125 220.625 97 219.375 96.75C218.125 96.4167 217 95.9167 216 95.25C215 94.5833 214.167 93.75 213.5 92.75C212.833 91.75 212.5 90.5 212.5 89V75.125L215.625 63.5ZM249.75 70.75C249.833 70.3333 250.083 69.5833 250.5 68.5C250.917 67.4167 251.333 66.25 251.75 65C252.25 63.75 252.708 62.5833 253.125 61.5C253.542 60.4167 253.833 59.6667 254 59.25C254.5 57.9167 254.958 57.0417 255.375 56.625C255.875 56.2083 256.75 56 258 56C259.333 56 260.208 56.4583 260.625 57.375C261.042 58.2917 261.25 59.375 261.25 60.625C261.25 62.7917 260.917 64.7917 260.25 66.625C259.667 68.375 259 70.1667 258.25 72C257.5 73.75 256.792 75.6667 256.125 77.75C255.542 79.75 255.25 82.0833 255.25 84.75C255.25 85.0833 255.25 85.5833 255.25 86.25C255.25 86.8333 255.292 87.4583 255.375 88.125C255.458 88.7083 255.625 89.25 255.875 89.75C256.125 90.1667 256.458 90.375 256.875 90.375C259.042 90.375 261.208 89.9583 263.375 89.125C265.625 88.2083 267.792 87.1667 269.875 86C272.042 84.75 274.083 83.4167 276 82C278 80.5 279.792 79.2083 281.375 78.125C281.958 77.7083 282.375 77.2917 282.625 76.875C282.958 76.4583 283.25 76.0833 283.5 75.75C283.75 75.3333 284.042 75 284.375 74.75C284.792 74.4167 285.417 74.25 286.25 74.25C287.333 74.25 288.208 74.5 288.875 75C289.625 75.4167 290 76.2083 290 77.375C290 77.875 289.958 78.3333 289.875 78.75C289.875 79.1667 289.667 79.5417 289.25 79.875C289.167 80.125 288.833 80.4583 288.25 80.875C287.75 81.2917 287.208 81.75 286.625 82.25C286.042 82.6667 285.5 83.0833 285 83.5C284.5 83.8333 284.125 84.0417 283.875 84.125C283.792 84.125 283.542 84.25 283.125 84.5C282.792 84.6667 282.583 84.75 282.5 84.75C282.417 84.8333 282.292 84.9583 282.125 85.125C282.042 85.2083 282 85.2917 282 85.375C280.25 86.7083 278.333 88.0833 276.25 89.5C274.25 90.8333 272.125 92.0833 269.875 93.25C267.625 94.3333 265.292 95.25 262.875 96C260.542 96.75 258.208 97.125 255.875 97.125C253.875 97.125 252.333 96.625 251.25 95.625C250.25 94.5417 249.5 93.2083 249 91.625C248.5 90.0417 248.208 88.375 248.125 86.625C248.042 84.875 248 83.2917 248 81.875L249.75 70.75ZM255.75 37.875C255.75 36.375 256.042 35.375 256.625 34.875C257.208 34.375 258.25 34.125 259.75 34.125C260.5 34.125 261.25 34.2917 262 34.625C262.75 34.875 263.125 35.5417 263.125 36.625C263.125 37.7083 262.583 38.7083 261.5 39.625C260.5 40.5417 259.5 41 258.5 41C257.5 41 256.792 40.7083 256.375 40.125C255.958 39.4583 255.75 38.7083 255.75 37.875ZM292.75 94.5L297 69.5V66L299.5 49.375C299.75 49.0417 300.208 48.875 300.875 48.875C301.542 48.7917 302 48.75 302.25 48.75C302.917 48.75 303.667 49 304.5 49.5C305.417 49.9167 305.875 50.5 305.875 51.25V59.75C306.208 59.5 306.792 59 307.625 58.25C308.458 57.5 309.333 56.7083 310.25 55.875C311.25 55.0417 312.167 54.25 313 53.5C313.833 52.75 314.375 52.2083 314.625 51.875C315.542 51.0417 316.625 50.3333 317.875 49.75C319.208 49.1667 320.458 48.875 321.625 48.875C324.042 48.875 325.917 49.625 327.25 51.125C328.667 52.625 329.375 54.5417 329.375 56.875C329.375 57.0417 329.333 57.1667 329.25 57.25C329.25 57.25 329.25 57.3333 329.25 57.5V58L324.5 79.375V89.5C327.083 89.5 329.75 89 332.5 88C335.333 86.9167 338.042 85.5833 340.625 84C343.208 82.4167 345.625 80.625 347.875 78.625C350.125 76.5417 352.083 74.5417 353.75 72.625H354.25C354.833 72.625 355.292 72.8333 355.625 73.25C356.042 73.5833 356.25 74.0417 356.25 74.625C356.25 76.4583 355.625 78.2917 354.375 80.125C353.208 81.875 351.667 83.5417 349.75 85.125C347.917 86.7083 345.75 88.2083 343.25 89.625C340.833 91.0417 338.417 92.25 336 93.25C333.667 94.25 331.375 95.0417 329.125 95.625C326.875 96.2083 324.958 96.5 323.375 96.5C321.792 96.5 320.542 96.2083 319.625 95.625C318.708 95.0417 318 94.2917 317.5 93.375C317.083 92.375 316.792 91.2917 316.625 90.125C316.542 88.9583 316.5 87.7083 316.5 86.375V84.75L321.375 60.5V56.375C319.375 56.375 317.375 57.25 315.375 59C313.458 60.75 311.708 62.875 310.125 65.375C308.625 67.875 307.292 70.4167 306.125 73C305.042 75.5833 304.25 77.7083 303.75 79.375C303.583 79.9583 303.333 81 303 82.5C302.667 84 302.333 85.5833 302 87.25C301.75 88.9167 301.5 90.5 301.25 92C301 93.5 300.833 94.5833 300.75 95.25C300.833 95.75 300.667 96.125 300.25 96.375C299.917 96.625 299.5 96.8333 299 97C298.5 97.0833 297.958 97.125 297.375 97.125C296.875 97.125 296.458 97.125 296.125 97.125C295.375 97.125 294.625 97 293.875 96.75C293.125 96.5 292.75 95.875 292.75 94.875V94.5ZM351.25 77.5C351.417 77 351.667 76.125 352 74.875C352.417 73.5417 352.792 72.125 353.125 70.625C353.542 69.125 353.875 67.7083 354.125 66.375C354.458 64.9583 354.708 64 354.875 63.5C355.375 61.5 355.958 59.3333 356.625 57C357.375 54.6667 358.375 52.5 359.625 50.5C360.875 48.5 362.458 46.875 364.375 45.625C366.375 44.2917 368.833 43.625 371.75 43.625C372.833 43.625 373.583 44.0417 374 44.875C374.5 45.625 374.917 46.4583 375.25 47.375C375.25 47.7083 375.25 48.3333 375.25 49.25C375.333 50.0833 375.375 50.6667 375.375 51C375.375 54.5833 375 57.75 374.25 60.5C373.583 63.25 372.5 65.7917 371 68.125C369.583 70.4583 367.833 72.6667 365.75 74.75C363.667 76.75 361.292 78.875 358.625 81.125C358.542 81.375 358.417 81.7917 358.25 82.375C358.083 82.9583 358 83.375 358 83.625V83.875C358 85.375 358.25 86.5833 358.75 87.5C359.25 88.4167 359.917 89.1667 360.75 89.75C361.667 90.25 362.667 90.5833 363.75 90.75C364.917 90.8333 366.167 90.875 367.5 90.875C371.417 90.875 375.167 90.3333 378.75 89.25C382.333 88.1667 385.625 86.4167 388.625 84C389.042 83.5833 389.542 83 390.125 82.25C390.792 81.4167 391.458 80.5833 392.125 79.75C392.792 78.9167 393.5 78.2083 394.25 77.625C395 76.9583 395.792 76.625 396.625 76.625C397.458 76.625 397.958 76.9583 398.125 77.625C398.292 78.2917 398.375 78.9583 398.375 79.625C398.375 81.4583 397.792 83.2083 396.625 84.875C395.542 86.4583 394.083 87.9167 392.25 89.25C390.5 90.5 388.458 91.625 386.125 92.625C383.875 93.625 381.625 94.4583 379.375 95.125C377.125 95.7917 374.958 96.2917 372.875 96.625C370.875 96.9583 369.167 97.125 367.75 97.125C363.333 97.125 359.625 96.4167 356.625 95C353.708 93.5 351.708 90.5417 350.625 86.125L351.25 77.5ZM369.125 52.875C367.458 54.375 366.125 55.75 365.125 57C364.208 58.1667 363.458 59.4167 362.875 60.75C362.375 62 361.917 63.375 361.5 64.875C361.167 66.375 360.792 68.125 360.375 70.125C361.958 68.875 363.25 67.625 364.25 66.375C365.333 65.125 366.208 63.8333 366.875 62.5C367.542 61.1667 368.042 59.75 368.375 58.25C368.708 56.6667 368.958 54.875 369.125 52.875ZM455.625 79.875C456.042 75.625 457 71.5833 458.5 67.75C460.083 63.9167 461.875 60.625 463.875 57.875C465.958 55.125 468.042 53 470.125 51.5C472.292 50 474.167 49.5417 475.75 50.125C476.167 49.875 476.5 49.6667 476.75 49.5C477.083 49.25 477.333 49.0417 477.5 48.875C477.75 48.625 478 48.4583 478.25 48.375C478.583 48.2083 479.042 48.125 479.625 48.125C480.792 48.125 481.833 48.5 482.75 49.25C483.667 50 484.458 50.9167 485.125 52C485.875 53.0833 486.417 54.25 486.75 55.5C487.167 56.6667 487.375 57.75 487.375 58.75C487.375 59.8333 486.958 60.5833 486.125 61C485.292 61.4167 484.333 61.625 483.25 61.625C482.583 61.625 482 61.5 481.5 61.25C481 60.9167 480.542 60.5417 480.125 60.125C479.792 59.7083 479.417 59.2917 479 58.875C478.583 58.4583 478.042 58.1667 477.375 58H477.25H476.875C476.792 58.0833 476.583 58.2917 476.25 58.625C476 58.875 475.833 59.0833 475.75 59.25C474 61.3333 472.375 63.2083 470.875 64.875C469.375 66.4583 468.042 68.0833 466.875 69.75C465.792 71.4167 464.917 73.2083 464.25 75.125C463.667 77.0417 463.375 79.3333 463.375 82C463.375 82.25 463.375 82.625 463.375 83.125C463.375 83.625 463.375 84.125 463.375 84.625C463.458 85.125 463.5 85.625 463.5 86.125C463.5 86.625 463.5 87 463.5 87.25C463.667 88.0833 464.125 88.7083 464.875 89.125C465.708 89.5417 466.458 89.9583 467.125 90.375C467.375 90.375 468 90.4167 469 90.5C470 90.5 470.583 90.5 470.75 90.5C473.75 90.5 477.292 90.0417 481.375 89.125C485.458 88.125 489.542 86.8333 493.625 85.25C497.792 83.6667 501.708 81.7917 505.375 79.625C509.042 77.375 511.958 75.0417 514.125 72.625C514.625 71.9583 515.042 71.0417 515.375 69.875C515.792 68.7083 516.208 67.5833 516.625 66.5C517.125 65.3333 517.667 64.3333 518.25 63.5C518.833 62.6667 519.708 62.25 520.875 62.25C521.958 62.25 522.625 62.7083 522.875 63.625C523.208 64.4583 523.375 65.2917 523.375 66.125C523.375 68.7917 522.708 71.2083 521.375 73.375C520.125 75.5417 518.542 77.5 516.625 79.25C514.708 81 512.583 82.5417 510.25 83.875C508 85.2083 505.833 86.3333 503.75 87.25C503.167 87.4167 501.875 87.875 499.875 88.625C497.958 89.375 495.875 90.1667 493.625 91C491.375 91.8333 489.167 92.6667 487 93.5C484.917 94.25 483.375 94.8333 482.375 95.25C481.042 95.6667 479.917 96 479 96.25C478.083 96.4167 477.25 96.5833 476.5 96.75C475.75 96.9167 474.958 97 474.125 97C473.375 97.0833 472.458 97.125 471.375 97.125C468.375 97.125 465.875 96.75 463.875 96C461.958 95.25 460.417 94.1667 459.25 92.75C458.083 91.25 457.208 89.4583 456.625 87.375C456.125 85.2083 455.792 82.7083 455.625 79.875ZM521.125 93.25C521.125 93 521.125 92.375 521.125 91.375C521.125 90.375 521.125 89.7083 521.125 89.375C519.708 84.375 519.5 79.4583 520.5 74.625C521.583 69.7917 523.458 65.4583 526.125 61.625C528.875 57.7083 532.333 54.4583 536.5 51.875C540.75 49.2083 545.375 47.5833 550.375 47H552.625C554.458 47 555.958 47.4167 557.125 48.25C558.375 49 559.333 50 560 51.25C560.75 52.5 561.25 53.9167 561.5 55.5C561.833 57.0833 562 58.6667 562 60.25C562 62.4167 561.75 64.5417 561.25 66.625C560.833 68.625 560.333 70.6667 559.75 72.75C559.25 74.8333 558.75 76.9167 558.25 79C557.833 81 557.625 83.125 557.625 85.375V86.125C557.708 86.2917 557.792 86.7917 557.875 87.625C558.042 88.375 558.167 88.8333 558.25 89C558.417 89 558.833 89.0417 559.5 89.125C560.167 89.125 560.583 89.125 560.75 89.125C561.583 89.125 562.375 89.125 563.125 89.125C563.958 89.0417 564.792 88.8333 565.625 88.5L589.375 77.5C589.458 77.5 589.583 77.5 589.75 77.5C590 77.4167 590.167 77.375 590.25 77.375C591.083 77.375 591.75 77.625 592.25 78.125C592.833 78.625 593.125 79.2917 593.125 80.125C593.125 80.5417 593.083 80.9583 593 81.375C593 81.7083 592.792 82.0417 592.375 82.375C591.792 82.7917 590.708 83.375 589.125 84.125C587.625 84.875 586 85.7083 584.25 86.625C582.5 87.5417 580.833 88.4167 579.25 89.25C577.75 90.0833 576.667 90.625 576 90.875C574.833 91.5417 573.542 92.1667 572.125 92.75C570.708 93.25 569.25 93.75 567.75 94.25C566.25 94.75 564.75 95.1667 563.25 95.5C561.833 95.75 560.542 95.875 559.375 95.875C557.542 95.875 556.042 95.5833 554.875 95C553.708 94.3333 552.833 93.5 552.25 92.5C551.667 91.4167 551.25 90.1667 551 88.75C550.833 87.25 550.833 85.7083 551 84.125C549.333 85.4583 547.542 86.875 545.625 88.375C543.708 89.875 541.708 91.25 539.625 92.5C537.542 93.75 535.417 94.8333 533.25 95.75C531.083 96.6667 528.875 97.125 526.625 97.125C525.375 97.125 524.25 96.8333 523.25 96.25C522.25 95.5833 521.542 94.5833 521.125 93.25ZM527.875 90.625C529.792 90.625 531.917 90.0833 534.25 89C536.583 87.8333 538.875 86.4167 541.125 84.75C543.375 83.0833 545.417 81.3333 547.25 79.5C549.083 77.5833 550.5 75.875 551.5 74.375C551.583 71.875 551.917 69.5 552.5 67.25C553.167 64.9167 553.5 62.5417 553.5 60.125C553.5 59.9583 553.458 59.7083 553.375 59.375C553.375 59.0417 553.375 58.7917 553.375 58.625C552.292 57.7083 551.375 57.1667 550.625 57C549.875 56.8333 548.875 56.75 547.625 56.75C547.458 56.75 547.083 56.75 546.5 56.75C546 56.75 545.667 56.7917 545.5 56.875C545 57.2917 544.167 58.0833 543 59.25C541.833 60.3333 540.583 61.5417 539.25 62.875C538 64.2083 536.792 65.4583 535.625 66.625C534.542 67.7917 533.792 68.5833 533.375 69C533.292 69 533.125 69.1667 532.875 69.5C532.625 69.75 532.333 70.0833 532 70.5C531.75 70.9167 531.5 71.3333 531.25 71.75C531.083 72.0833 530.958 72.375 530.875 72.625L527.875 87.25V90.625ZM593.625 79.375C592.958 79.7083 592.25 79.9167 591.5 80C590.75 80 590 80 589.25 80C588.5 80 587.75 80.0417 587 80.125C586.25 80.125 585.5 80.2917 584.75 80.625C583.333 80.7917 582.417 80.7083 582 80.375C581.583 79.9583 581.458 79.4167 581.625 78.75C581.792 78.0833 582.25 77.3333 583 76.5C583.75 75.6667 584.625 74.9583 585.625 74.375C586.542 73.7917 587.542 73.375 588.625 73.125C589.792 72.875 590.833 72.9167 591.75 73.25C591.333 71.75 591.375 70.4583 591.875 69.375C592.375 68.2917 593.375 67.75 594.875 67.75C595.625 67.75 596.292 67.8333 596.875 68C597.542 68.0833 598.042 68.4167 598.375 69C599.625 68.25 601.292 67 603.375 65.25C605.458 63.4167 607.583 61.5833 609.75 59.75C612 57.8333 614.042 56.1667 615.875 54.75C617.708 53.25 618.958 52.5 619.625 52.5C619.875 52.5 620.208 52.5417 620.625 52.625C621.042 52.625 621.458 52.7083 621.875 52.875C622.375 53.0417 622.75 53.25 623 53.5C623.333 53.6667 623.5 53.9583 623.5 54.375V59.75C622.917 62.0833 622.333 64.2917 621.75 66.375C621.25 68.375 620.792 70.375 620.375 72.375C620.042 74.2917 619.792 76.25 619.625 78.25C619.458 80.25 619.375 82.375 619.375 84.625C620.708 84.625 622.292 84.3333 624.125 83.75C626.042 83.1667 627.958 82.4583 629.875 81.625C631.792 80.7917 633.583 79.9583 635.25 79.125C636.917 78.2083 638.25 77.4583 639.25 76.875C639.417 76.7917 639.792 76.5 640.375 76C640.958 75.5 641.583 75 642.25 74.5C642.917 73.9167 643.542 73.4167 644.125 73C644.792 72.5 645.208 72.1667 645.375 72C645.542 71.8333 645.958 71.625 646.625 71.375C647.292 71.0417 647.667 70.8333 647.75 70.75C648.083 70.6667 648.375 70.7917 648.625 71.125C648.958 71.375 649.25 71.7083 649.5 72.125C649.75 72.4583 649.917 72.8333 650 73.25C650.167 73.5833 650.25 73.7917 650.25 73.875C650.25 74.7083 649.917 75.5417 649.25 76.375C648.583 77.2083 647.792 78 646.875 78.75C645.958 79.4167 645 80.0833 644 80.75C643.083 81.3333 642.375 81.875 641.875 82.375C641.208 82.7083 640.042 83.25 638.375 84C636.792 84.75 635.083 85.5417 633.25 86.375C631.417 87.2083 629.667 88 628 88.75C626.417 89.5 625.292 90.0417 624.625 90.375C624.458 90.4583 624.083 90.5833 623.5 90.75C622.917 90.8333 622.292 91 621.625 91.25C620.958 91.5 620.292 91.7083 619.625 91.875C619.042 91.9583 618.667 92.0417 618.5 92.125C617.75 92.375 617.167 92.7917 616.75 93.375C616.417 93.9583 616.042 94.5417 615.625 95.125C615.292 95.7083 614.833 96.2083 614.25 96.625C613.75 97.0417 612.917 97.1667 611.75 97C611.667 96.9167 611.292 96.75 610.625 96.5C610.042 96.1667 609.667 95.9167 609.5 95.75C607.5 94.3333 605.792 93 604.375 91.75C602.958 90.5 601.667 89.2917 600.5 88.125C599.333 86.875 598.208 85.5417 597.125 84.125C596.125 82.7083 594.958 81.125 593.625 79.375ZM601.5 74.375C602.083 75.625 602.625 76.8333 603.125 78C603.708 79.1667 604.375 80.2917 605.125 81.375C605.875 82.375 606.708 83.25 607.625 84C608.625 84.75 609.833 85.2083 611.25 85.375C611.417 84.125 611.625 82.625 611.875 80.875C612.125 79.125 612.417 77.2917 612.75 75.375C613.083 73.4583 613.458 71.5833 613.875 69.75C614.375 67.8333 614.917 66.1667 615.5 64.75H614.25C612.917 65.6667 611.667 66.5833 610.5 67.5C609.417 68.3333 608.333 69.1667 607.25 70C606.167 70.75 605.292 71.4167 604.625 72C604.542 72.0833 604.417 72.2083 604.25 72.375C604.083 72.5417 603.958 72.625 603.875 72.625C603.792 72.7917 603.417 73.0833 602.75 73.5C602.083 73.9167 601.667 74.2083 601.5 74.375ZM615.5 62.875C615.25 62.875 615.125 63.0833 615.125 63.5C615.125 63.8333 615.25 64 615.5 64C615.833 64 616 63.8333 616 63.5C616 63.0833 615.833 62.875 615.5 62.875ZM651.75 79.375C651.083 79.7083 650.375 79.9167 649.625 80C648.875 80 648.125 80 647.375 80C646.625 80 645.875 80.0417 645.125 80.125C644.375 80.125 643.625 80.2917 642.875 80.625C641.458 80.7917 640.542 80.7083 640.125 80.375C639.708 79.9583 639.583 79.4167 639.75 78.75C639.917 78.0833 640.375 77.3333 641.125 76.5C641.875 75.6667 642.75 74.9583 643.75 74.375C644.667 73.7917 645.667 73.375 646.75 73.125C647.917 72.875 648.958 72.9167 649.875 73.25C649.458 71.75 649.5 70.4583 650 69.375C650.5 68.2917 651.5 67.75 653 67.75C653.75 67.75 654.417 67.8333 655 68C655.667 68.0833 656.167 68.4167 656.5 69C657.75 68.25 659.417 67 661.5 65.25C663.583 63.4167 665.708 61.5833 667.875 59.75C670.125 57.8333 672.167 56.1667 674 54.75C675.833 53.25 677.083 52.5 677.75 52.5C678 52.5 678.333 52.5417 678.75 52.625C679.167 52.625 679.583 52.7083 680 52.875C680.5 53.0417 680.875 53.25 681.125 53.5C681.458 53.6667 681.625 53.9583 681.625 54.375V59.75C681.042 62.0833 680.458 64.2917 679.875 66.375C679.375 68.375 678.917 70.375 678.5 72.375C678.167 74.2917 677.917 76.25 677.75 78.25C677.583 80.25 677.5 82.375 677.5 84.625C678.833 84.625 680.417 84.3333 682.25 83.75C684.167 83.1667 686.083 82.4583 688 81.625C689.917 80.7917 691.708 79.9583 693.375 79.125C695.042 78.2083 696.375 77.4583 697.375 76.875C697.542 76.7917 697.917 76.5 698.5 76C699.083 75.5 699.708 75 700.375 74.5C701.042 73.9167 701.667 73.4167 702.25 73C702.917 72.5 703.333 72.1667 703.5 72C703.667 71.8333 704.083 71.625 704.75 71.375C705.417 71.0417 705.792 70.8333 705.875 70.75C706.208 70.6667 706.5 70.7917 706.75 71.125C707.083 71.375 707.375 71.7083 707.625 72.125C707.875 72.4583 708.042 72.8333 708.125 73.25C708.292 73.5833 708.375 73.7917 708.375 73.875C708.375 74.7083 708.042 75.5417 707.375 76.375C706.708 77.2083 705.917 78 705 78.75C704.083 79.4167 703.125 80.0833 702.125 80.75C701.208 81.3333 700.5 81.875 700 82.375C699.333 82.7083 698.167 83.25 696.5 84C694.917 84.75 693.208 85.5417 691.375 86.375C689.542 87.2083 687.792 88 686.125 88.75C684.542 89.5 683.417 90.0417 682.75 90.375C682.583 90.4583 682.208 90.5833 681.625 90.75C681.042 90.8333 680.417 91 679.75 91.25C679.083 91.5 678.417 91.7083 677.75 91.875C677.167 91.9583 676.792 92.0417 676.625 92.125C675.875 92.375 675.292 92.7917 674.875 93.375C674.542 93.9583 674.167 94.5417 673.75 95.125C673.417 95.7083 672.958 96.2083 672.375 96.625C671.875 97.0417 671.042 97.1667 669.875 97C669.792 96.9167 669.417 96.75 668.75 96.5C668.167 96.1667 667.792 95.9167 667.625 95.75C665.625 94.3333 663.917 93 662.5 91.75C661.083 90.5 659.792 89.2917 658.625 88.125C657.458 86.875 656.333 85.5417 655.25 84.125C654.25 82.7083 653.083 81.125 651.75 79.375ZM659.625 74.375C660.208 75.625 660.75 76.8333 661.25 78C661.833 79.1667 662.5 80.2917 663.25 81.375C664 82.375 664.833 83.25 665.75 84C666.75 84.75 667.958 85.2083 669.375 85.375C669.542 84.125 669.75 82.625 670 80.875C670.25 79.125 670.542 77.2917 670.875 75.375C671.208 73.4583 671.583 71.5833 672 69.75C672.5 67.8333 673.042 66.1667 673.625 64.75H672.375C671.042 65.6667 669.792 66.5833 668.625 67.5C667.542 68.3333 666.458 69.1667 665.375 70C664.292 70.75 663.417 71.4167 662.75 72C662.667 72.0833 662.542 72.2083 662.375 72.375C662.208 72.5417 662.083 72.625 662 72.625C661.917 72.7917 661.542 73.0833 660.875 73.5C660.208 73.9167 659.792 74.2083 659.625 74.375ZM673.625 62.875C673.375 62.875 673.25 63.0833 673.25 63.5C673.25 63.8333 673.375 64 673.625 64C673.958 64 674.125 63.8333 674.125 63.5C674.125 63.0833 673.958 62.875 673.625 62.875ZM705.5 93.25C705.5 93 705.5 92.375 705.5 91.375C705.5 90.375 705.5 89.7083 705.5 89.375C704.083 84.375 703.875 79.4583 704.875 74.625C705.958 69.7917 707.833 65.4583 710.5 61.625C713.25 57.7083 716.708 54.4583 720.875 51.875C725.125 49.2083 729.75 47.5833 734.75 47H737C738.833 47 740.333 47.4167 741.5 48.25C742.75 49 743.708 50 744.375 51.25C745.125 52.5 745.625 53.9167 745.875 55.5C746.208 57.0833 746.375 58.6667 746.375 60.25C746.375 62.4167 746.125 64.5417 745.625 66.625C745.208 68.625 744.708 70.6667 744.125 72.75C743.625 74.8333 743.125 76.9167 742.625 79C742.208 81 742 83.125 742 85.375V86.125C742.083 86.2917 742.167 86.7917 742.25 87.625C742.417 88.375 742.542 88.8333 742.625 89C742.792 89 743.208 89.0417 743.875 89.125C744.542 89.125 744.958 89.125 745.125 89.125C745.958 89.125 746.75 89.125 747.5 89.125C748.333 89.0417 749.167 88.8333 750 88.5L773.75 77.5C773.833 77.5 773.958 77.5 774.125 77.5C774.375 77.4167 774.542 77.375 774.625 77.375C775.458 77.375 776.125 77.625 776.625 78.125C777.208 78.625 777.5 79.2917 777.5 80.125C777.5 80.5417 777.458 80.9583 777.375 81.375C777.375 81.7083 777.167 82.0417 776.75 82.375C776.167 82.7917 775.083 83.375 773.5 84.125C772 84.875 770.375 85.7083 768.625 86.625C766.875 87.5417 765.208 88.4167 763.625 89.25C762.125 90.0833 761.042 90.625 760.375 90.875C759.208 91.5417 757.917 92.1667 756.5 92.75C755.083 93.25 753.625 93.75 752.125 94.25C750.625 94.75 749.125 95.1667 747.625 95.5C746.208 95.75 744.917 95.875 743.75 95.875C741.917 95.875 740.417 95.5833 739.25 95C738.083 94.3333 737.208 93.5 736.625 92.5C736.042 91.4167 735.625 90.1667 735.375 88.75C735.208 87.25 735.208 85.7083 735.375 84.125C733.708 85.4583 731.917 86.875 730 88.375C728.083 89.875 726.083 91.25 724 92.5C721.917 93.75 719.792 94.8333 717.625 95.75C715.458 96.6667 713.25 97.125 711 97.125C709.75 97.125 708.625 96.8333 707.625 96.25C706.625 95.5833 705.917 94.5833 705.5 93.25ZM712.25 90.625C714.167 90.625 716.292 90.0833 718.625 89C720.958 87.8333 723.25 86.4167 725.5 84.75C727.75 83.0833 729.792 81.3333 731.625 79.5C733.458 77.5833 734.875 75.875 735.875 74.375C735.958 71.875 736.292 69.5 736.875 67.25C737.542 64.9167 737.875 62.5417 737.875 60.125C737.875 59.9583 737.833 59.7083 737.75 59.375C737.75 59.0417 737.75 58.7917 737.75 58.625C736.667 57.7083 735.75 57.1667 735 57C734.25 56.8333 733.25 56.75 732 56.75C731.833 56.75 731.458 56.75 730.875 56.75C730.375 56.75 730.042 56.7917 729.875 56.875C729.375 57.2917 728.542 58.0833 727.375 59.25C726.208 60.3333 724.958 61.5417 723.625 62.875C722.375 64.2083 721.167 65.4583 720 66.625C718.917 67.7917 718.167 68.5833 717.75 69C717.667 69 717.5 69.1667 717.25 69.5C717 69.75 716.708 70.0833 716.375 70.5C716.125 70.9167 715.875 71.3333 715.625 71.75C715.458 72.0833 715.333 72.375 715.25 72.625L712.25 87.25V90.625ZM768.125 82.125C770.458 80.375 772.167 78.6667 773.25 77C774.417 75.3333 775.333 73.6667 776 72C776.667 70.3333 777.208 68.5833 777.625 66.75C778.042 64.8333 778.708 62.75 779.625 60.5C779.292 59.9167 779.083 59.4167 779 59C779 58.5 779 57.9167 779 57.25C779 56.5833 779.083 55.7917 779.25 54.875C779.5 53.9583 779.833 53.125 780.25 52.375C780.667 51.5417 781.167 50.8333 781.75 50.25C782.333 49.6667 783.042 49.375 783.875 49.375C783.792 49.7083 784.25 50.0833 785.25 50.5C786.333 50.9167 787.625 51.375 789.125 51.875C790.708 52.375 792.375 52.9167 794.125 53.5C795.875 54.0833 797.417 54.7083 798.75 55.375C800.25 56.2083 801.292 57.125 801.875 58.125C802.542 59.0417 802.875 60.375 802.875 62.125C802.875 63.7083 802.667 65.5 802.25 67.5C801.917 69.5 801.542 71.5417 801.125 73.625C800.792 75.625 800.417 77.6667 800 79.75C799.667 81.75 799.5 83.5833 799.5 85.25V88.5C799.417 89.25 799.583 89.6667 800 89.75C800.5 89.75 800.958 89.75 801.375 89.75C802.375 89.75 803.292 89.5833 804.125 89.25C804.958 88.9167 805.792 88.5417 806.625 88.125C807.542 87.7083 808.417 87.3333 809.25 87C810.083 86.5833 810.958 86.2917 811.875 86.125L822.875 79.375C823.208 78.7917 823.625 78.3333 824.125 78C824.708 77.5833 825.25 77.2083 825.75 76.875C826.583 76.375 827.583 75.6667 828.75 74.75C829.333 74.25 829.958 73.75 830.625 73.25H834.375C834.625 73.25 834.792 73.5 834.875 74C834.958 74.5 835 74.875 835 75.125C835 76.125 834.292 77.375 832.875 78.875C831.458 80.375 829.625 81.9167 827.375 83.5C825.125 85.0833 822.625 86.6667 819.875 88.25C817.125 89.75 814.417 91.125 811.75 92.375C809.167 93.625 806.75 94.625 804.5 95.375C802.333 96.125 800.667 96.5 799.5 96.5C798 96.5 796.792 96.125 795.875 95.375C794.958 94.625 794.208 93.7083 793.625 92.625C793.042 91.5417 792.625 90.375 792.375 89.125C792.208 87.7917 792.125 86.5 792.125 85.25C792.125 84.3333 792.417 83.0417 793 81.375C793.583 79.7083 794.25 78 795 76.25C795.75 74.5 796.417 72.7917 797 71.125C797.583 69.4583 797.875 68.125 797.875 67.125C797.875 67.0417 797.25 66.7083 796 66.125C794.833 65.5417 793.542 64.9167 792.125 64.25C790.708 63.5 789.375 62.875 788.125 62.375C786.958 61.7917 786.375 61.4583 786.375 61.375C784.542 63.2917 783.25 65.3333 782.5 67.5C781.833 69.6667 781.125 71.9167 780.375 74.25C779.708 76.5833 778.667 78.9167 777.25 81.25C775.917 83.5833 773.625 85.875 770.375 88.125C770.292 88.125 770.125 88.0833 769.875 88C769.542 87.9167 769.25 87.7083 769 87.375C768.667 86.9583 768.417 86.375 768.25 85.625C768.083 84.7917 768.042 83.625 768.125 82.125Z" fill="#423E3B"/>
<path d="M243.064 179.24C240.568 179.24 238.248 178.824 236.104 177.992C233.992 177.128 232.152 175.928 230.584 174.392C229.016 172.856 227.8 171.064 226.936 169.016C226.072 166.936 225.64 164.664 225.64 162.2C225.64 159.736 226.072 157.48 226.936 155.432C227.8 153.352 229.016 151.544 230.584 150.008C232.184 148.472 234.04 147.288 236.152 146.456C238.264 145.592 240.568 145.16 243.064 145.16C245.432 145.16 247.64 145.544 249.688 146.312C251.768 147.08 253.544 148.248 255.016 149.816L253.48 151.4C252.04 149.992 250.44 148.984 248.68 148.376C246.952 147.736 245.112 147.416 243.16 147.416C241.016 147.416 239.016 147.784 237.16 148.52C235.336 149.256 233.736 150.296 232.36 151.64C231.016 152.984 229.96 154.552 229.192 156.344C228.456 158.136 228.088 160.088 228.088 162.2C228.088 164.312 228.456 166.264 229.192 168.056C229.96 169.848 231.016 171.416 232.36 172.76C233.736 174.104 235.336 175.144 237.16 175.88C239.016 176.616 241.016 176.984 243.16 176.984C245.112 176.984 246.952 176.68 248.68 176.072C250.44 175.432 252.04 174.392 253.48 172.952L255.016 174.536C253.544 176.104 251.768 177.288 249.688 178.088C247.64 178.856 245.432 179.24 243.064 179.24ZM274.975 160.856H293.167V163.016H274.975V160.856ZM275.263 176.792H295.999V179H272.815V145.4H295.279V147.608H275.263V176.792ZM281.359 142.664L288.031 137H291.487L283.951 142.664H281.359ZM314.525 179V145.4H326.573C329.389 145.4 331.805 145.848 333.821 146.744C335.837 147.64 337.389 148.936 338.477 150.632C339.565 152.296 340.109 154.328 340.109 156.728C340.109 159.064 339.565 161.08 338.477 162.776C337.389 164.44 335.837 165.736 333.821 166.664C331.805 167.56 329.389 168.008 326.573 168.008H315.869L316.973 166.856V179H314.525ZM337.853 179L329.117 166.808H331.901L340.637 179H337.853ZM316.973 167L315.869 165.848H326.573C330.189 165.848 332.925 165.048 334.781 163.448C336.669 161.848 337.613 159.608 337.613 156.728C337.613 153.816 336.669 151.576 334.781 150.008C332.925 148.408 330.189 147.608 326.573 147.608H315.869L316.973 146.408V167ZM353.056 179L368.512 145.4H370.96L386.416 179H383.776L369.184 146.936H370.24L355.696 179H353.056ZM358.72 169.544L359.536 167.48H379.648L380.464 169.544H358.72ZM402.115 179V145.4H404.179L419.779 172.328H418.675L434.227 145.4H436.243L436.291 179H433.891L433.843 149.096H434.515L419.779 174.536H418.579L403.795 149.096H404.515V179H402.115ZM457.606 179V145.4H460.054V179H457.606ZM495.618 179.24C493.122 179.24 490.802 178.824 488.658 177.992C486.546 177.128 484.69 175.928 483.09 174.392C481.522 172.824 480.306 171.016 479.442 168.968C478.578 166.888 478.146 164.632 478.146 162.2C478.146 159.768 478.578 157.528 479.442 155.48C480.306 153.4 481.522 151.592 483.09 150.056C484.69 148.488 486.546 147.288 488.658 146.456C490.802 145.592 493.122 145.16 495.618 145.16C498.114 145.16 500.418 145.592 502.53 146.456C504.674 147.288 506.53 148.472 508.098 150.008C509.666 151.544 510.882 153.352 511.746 155.432C512.642 157.48 513.09 159.736 513.09 162.2C513.09 164.664 512.642 166.936 511.746 169.016C510.882 171.064 509.666 172.856 508.098 174.392C506.53 175.928 504.674 177.128 502.53 177.992C500.418 178.824 498.114 179.24 495.618 179.24ZM506.658 185.384C505.698 185.384 504.754 185.256 503.826 185C502.93 184.744 502.002 184.344 501.042 183.8C500.114 183.288 499.154 182.6 498.162 181.736C497.202 180.904 496.162 179.896 495.042 178.712L497.826 178.04C498.85 179.224 499.858 180.216 500.85 181.016C501.874 181.816 502.866 182.392 503.826 182.744C504.786 183.128 505.73 183.32 506.658 183.32C509.282 183.32 511.49 182.248 513.282 180.104L514.578 181.592C512.53 184.12 509.89 185.384 506.658 185.384ZM495.618 176.984C497.762 176.984 499.746 176.616 501.57 175.88C503.394 175.144 504.978 174.104 506.322 172.76C507.666 171.416 508.706 169.848 509.442 168.056C510.21 166.264 510.594 164.312 510.594 162.2C510.594 160.088 510.21 158.136 509.442 156.344C508.706 154.552 507.666 152.984 506.322 151.64C504.978 150.296 503.394 149.256 501.57 148.52C499.746 147.784 497.762 147.416 495.618 147.416C493.474 147.416 491.49 147.784 489.666 148.52C487.842 149.256 486.242 150.296 484.866 151.64C483.522 152.984 482.466 154.552 481.698 156.344C480.962 158.136 480.594 160.088 480.594 162.2C480.594 164.312 480.962 166.264 481.698 168.056C482.466 169.848 483.522 171.416 484.866 172.76C486.242 174.104 487.842 175.144 489.666 175.88C491.49 176.616 493.474 176.984 495.618 176.984ZM544.333 179.24C540.173 179.24 536.893 178.024 534.493 175.592C532.093 173.16 530.893 169.544 530.893 164.744V145.4H533.341V164.648C533.341 168.84 534.301 171.944 536.221 173.96C538.141 175.976 540.861 176.984 544.381 176.984C547.869 176.984 550.573 175.976 552.493 173.96C554.413 171.944 555.373 168.84 555.373 164.648V145.4H557.821V164.744C557.821 169.544 556.621 173.16 554.221 175.592C551.821 178.024 548.525 179.24 544.333 179.24ZM581.003 160.856H599.195V163.016H581.003V160.856ZM581.291 176.792H602.027V179H578.843V145.4H601.307V147.608H581.291V176.792Z" fill="#423E3B"/>
</svg>
